<?xml version="1.0" encoding="utf-8"?>
<!-- Generator: Adobe Illustrator 24.3.0, SVG Export Plug-In . SVG Version: 6.00 Build 0)  -->
<svg version="1.1" id="圖層_1" xmlns="http://www.w3.org/2000/svg" xmlns:xlink="http://www.w3.org/1999/xlink" x="0px" y="0px"
	 viewBox="0 0 403 96.9" style="enable-background:new 0 0 403 96.9;" xml:space="preserve">
<style type="text/css">
	.st0{fill:url(#SVGID_1_);}
	.st1{fill:url(#SVGID_2_);}
	.st2{fill:url(#SVGID_3_);}
	.st3{fill:#3E3A39;}
</style>
<g>
	<g>
		<linearGradient id="SVGID_1_" gradientUnits="userSpaceOnUse" x1="15.8162" y1="79.5548" x2="67.6609" y2="17.7687">
			<stop  offset="0.25" style="stop-color:#0473EA"/>
			<stop  offset="0.8" style="stop-color:#38D200"/>
		</linearGradient>
		<path class="st0" d="M88.3,27.1C82.9,17.8,71.9,6.8,50.5,5.8V3c0-1.6-1.3-3-3-3c-1.6,0-3,1.3-3,3v2.9C23,6.7,12,17.8,6.6,27.1
			C0.5,37.6,0,47.9,0,48.4c-0.1,1.6,1.2,3,2.8,3.1c1.6,0.1,3-1.2,3.1-2.8C6,47.2,8.1,13.5,44.5,11.8v6.5
			c-18.5,1.3-26.3,13.9-26.6,14.4c-0.8,1.4-0.4,3.2,1,4.1c1.4,0.8,3.2,0.4,4.1-1c0.3-0.5,7.4-11.7,24.5-11.7
			c17.1,0,23.8,11.1,24.1,11.6c0.5,1,1.6,1.5,2.6,1.5c0.5,0,1-0.1,1.5-0.4c1.4-0.8,1.9-2.6,1.1-4.1c-0.3-0.6-7.8-13.2-26.3-14.5
			v-6.5C86.8,13.6,89,47.2,89.1,48.6c0.1,1.6,1.4,2.8,3,2.8c0,0,0.1,0,0.1,0c1.6-0.1,2.9-1.5,2.8-3.1C95,47.9,94.4,37.6,88.3,27.1z"
			/>
		<linearGradient id="SVGID_2_" gradientUnits="userSpaceOnUse" x1="19.0199" y1="81.1566" x2="70.9033" y2="19.3244">
			<stop  offset="0.25" style="stop-color:#0473EA"/>
			<stop  offset="0.8" style="stop-color:#38D200"/>
		</linearGradient>
		<path class="st1" d="M29.6,53.9l0.5,0.2h35.2c3.5,0,5.3-3.4,5.4-6.9l0-0.3l0-0.3c-0.7-5.4-6.4-15.5-22.5-15.5
			c-17.2,0-20.8,9.3-22.3,13.2c-0.1,0.4-0.3,0.7-0.4,0.9c-0.9,2-0.6,3.7-0.1,4.7C26.4,52.7,29.1,53.7,29.6,53.9z M30.9,47.8
			c0.2-0.3,0.3-0.8,0.5-1.2c1.4-3.5,3.6-9.4,16.7-9.4c13.7,0,16.2,8.5,16.6,10.1c0,0.3-0.1,0.6-0.2,0.9H31.3
			C31.1,48.1,31,48,30.9,47.8C30.9,47.8,30.9,47.8,30.9,47.8z"/>
		<linearGradient id="SVGID_3_" gradientUnits="userSpaceOnUse" x1="29.5499" y1="87.5219" x2="81.6135" y2="25.4749">
			<stop  offset="0.25" style="stop-color:#0473EA"/>
			<stop  offset="0.8" style="stop-color:#38D200"/>
		</linearGradient>
		<path class="st2" d="M83.1,56.6h-71c-2.8,0-6.6,1.6-8.4,4.6c-1.5,2.5-1.4,5.4,0.2,8.3c1.1,2,2.7,4.6,4.8,7.4
			c0.1,0.1,0.2,0.2,0.3,0.3c6.8,8.9,19.1,19.7,38.4,19.7h0.5c25.6,0,38.9-19.2,43.5-27.4c1.5-2.8,1.6-5.7,0.1-8.1
			C89.6,58.4,85.7,56.6,83.1,56.6z M8.8,64.2c0.6-1.1,2.3-1.7,3.3-1.7h32.7v9.9H12.7c-1.6-2.2-2.8-4.2-3.6-5.7
			C8.3,65.2,8.7,64.5,8.8,64.2z M17.7,78.3h27.1v12.6C32.6,90.2,23.8,84.4,17.7,78.3z M50.8,90.9V78.3h26.6
			C71.4,84.3,62.7,90,50.8,90.9z M86,66.7c-0.9,1.5-2.1,3.5-3.6,5.7H50.8v-9.9h32.3c0.6,0,2.5,0.7,3.2,1.9
			C86.4,64.7,86.8,65.3,86,66.7z"/>
	</g>
	<path class="st3" d="M162.8,53.6c-0.1,1.3-0.4,2.5-0.6,3.7c0,0.2,0.1,0.3,0.3,0.3c2.9,0,23,0,26.7,0c0.3,0,0.6,0.3,0.6,0.6v4.3
		c0,0.3-0.3,0.6-0.6,0.6l-28.1,0c-0.2,0-0.5,0.2-0.5,0.4c-3.3,8.6-10.5,14.3-28,17.2c-0.3,0-0.6-0.1-0.6-0.4
		c-0.5-1.4-1.5-3.2-2.5-4.6c-0.3-0.4,0-0.8,0.4-0.9c13.6-2,20-5.5,23.2-10.9c0.2-0.4-0.1-0.9-0.5-0.9c-3.9,0-18.5,0-20.7,0
		c-0.2,0-0.3-0.1-0.3-0.3v-4.6c0-0.3,0.3-0.6,0.6-0.6H155c0.3,0,0.5-0.2,0.6-0.5c0.2-1.1,0.4-2.2,0.6-3.4c0-0.3-0.2-0.7-0.6-0.7
		c-3.8,0-22.6,0-25.2,0c-0.2,0-0.3-0.1-0.3-0.3v-4.8c0-0.3,0.3-0.6,0.6-0.6h25.7c0.3,0,0.6-0.3,0.6-0.6v-3.7c0-0.3-0.3-0.6-0.6-0.6
		h-19.6c-0.3,0-0.6-0.3-0.6-0.6v-4.3c0-0.3,0.3-0.6,0.6-0.6h19.6c0.3,0,0.6-0.3,0.6-0.6v-3.5c0-0.3-0.3-0.6-0.6-0.6h-23.5
		c-0.3,0-0.6-0.3-0.6-0.6v-4.5c0-0.3,0.3-0.6,0.6-0.6l12.3,0c0.4,0,0.7-0.5,0.5-0.9c-1-1.9-2.4-4-3.7-5.7c-0.2-0.3-0.1-0.7,0.2-0.9
		c1.2-0.5,3.6-1.4,4.5-1.8c0.2-0.1,0.5,0,0.6,0.1c2.1,2.3,4.1,5.2,5.1,7.5c0.1,0.3,0,0.6-0.3,0.8l-1.8,0.8l16.5,0
		c0.2,0,0.4-0.1,0.5-0.3c1.7-2.6,3.8-6,5-8.7c0.1-0.3,0.4-0.4,0.7-0.3l5.6,1.5c0.4,0.1,0.5,0.5,0.3,0.9c-1.4,2.2-2.9,4.5-4.3,6.4
		c-0.1,0.2,0,0.5,0.2,0.5c2.4,0,11.4,0,13.2,0c0.2,0,0.3,0.1,0.3,0.3v4.8c0,0.3-0.3,0.6-0.6,0.6h-23.7c-0.3,0-0.6,0.3-0.6,0.6v3.5
		c0,0.3,0.3,0.6,0.6,0.6h20.4c0.3,0,0.6,0.3,0.6,0.6V42c0,0.3-0.3,0.6-0.6,0.6h-20.4c-0.3,0-0.6,0.3-0.6,0.6v3.7
		c0,0.3,0.3,0.6,0.6,0.6h26.6c0.3,0,0.6,0.3,0.6,0.6v4.5c0,0.3-0.3,0.6-0.6,0.6l-27.3,0C163.1,53.1,162.9,53.3,162.8,53.6z
		 M187.8,80.8c-6.1-3.9-17.6-9.2-26.5-12.7c-0.3-0.1-0.5-0.5-0.3-0.8l2.2-3.8c0.1-0.2,0.4-0.4,0.7-0.3c8.8,3.2,20.6,8.3,26.9,12
		c0.3,0.2,0.4,0.5,0.2,0.8l-2.4,4.6C188.5,80.9,188.1,81,187.8,80.8z"/>
	<path class="st3" d="M210.7,41.5c-0.8,5.8-2.6,11.9-6.2,16.7c-0.2,0.3-0.6,0.3-0.9,0.1c-1.1-1-3-2.4-4.3-3.2
		c-0.3-0.2-0.4-0.6-0.2-0.8c6.7-9.2,5.6-19.2,5.7-28.8c0-0.3,0.3-0.6,0.6-0.6h24.2c0.4,0,0.6-0.3,0.6-0.7c-0.3-1.9-0.5-4-0.6-5.9
		c0-0.3,0.2-0.6,0.6-0.6h5.2c0.3,0,0.6,0.2,0.6,0.5c0.1,2.1,0.4,4.2,0.7,6.2c0,0.3,0.3,0.5,0.6,0.5h7.7c0.5,0,0.8-0.6,0.4-1
		c-1.3-1.2-2.8-2.4-4.2-3.4c-0.3-0.2-0.3-0.8,0.1-1l3.3-1.9c0.2-0.1,0.4-0.1,0.6,0c2.4,1.5,5,3.6,6.7,5.2c0.3,0.3,0.2,0.7-0.1,0.9
		l-1.8,1.2h9.2c0.3,0,0.6,0.3,0.6,0.6v4.4c0,0.3-0.3,0.6-0.6,0.6h-20.4c-0.4,0-0.7,0.4-0.6,0.8c1,3.5,2.3,6.6,3.7,9.3
		c0.2,0.3,0.6,0.4,0.9,0.1c2.6-2.6,4.9-5.4,6.6-8.5c0.1-0.2,0.4-0.3,0.7-0.3l4.6,1.4c0.4,0.1,0.5,0.5,0.3,0.8
		c-2.4,4.2-5.5,8.1-9.1,11.4c-0.2,0.2-0.2,0.6,0,0.8c5,5,9.6,7.1,10-2.4c0-0.5,0.5-0.7,0.9-0.4c1.2,0.8,2.6,1.5,3.9,2
		c0.2,0.1,0.4,0.3,0.4,0.6c-1,14.9-12.9,12.1-20,4.3c-0.2-0.2-0.5-0.3-0.8-0.1c-2.9,2.1-6,4-9.1,5.5c-0.2,0.1-0.6,0.1-0.7-0.2
		c-0.8-1-2.2-2.7-3.3-3.8c-0.3-0.3-0.2-0.8,0.2-0.9c3.3-1.5,6.6-3.2,9.6-5.4c0.2-0.2,0.3-0.5,0.2-0.8c-2.3-3.9-4.2-8.7-5.5-13.9
		c-0.1-0.3-0.3-0.4-0.6-0.4h-19.2c-0.3,0-0.6,0.3-0.6,0.6c0,1.4,0,2.8,0,4.3c0,0.3,0.2,0.6,0.6,0.6H227c0.3,0,0.6,0.3,0.6,0.6
		c-0.4,14-0.3,18.5-12.9,17.2c-0.3,0-0.5-0.2-0.5-0.5c-0.2-1.1-0.5-2.5-0.9-3.6c-0.2-0.4,0.2-0.8,0.6-0.8c6.4,0.5,7.3,1.1,7.7-7.3
		c0-0.3-0.3-0.6-0.6-0.6h-9.6C211,41,210.7,41.2,210.7,41.5z M253.7,73.7h6.6c0.3,0,0.6,0.3,0.6,0.6v4.5c0,0.3-0.3,0.6-0.6,0.6
		h-60.4c-0.3,0-0.6-0.3-0.6-0.6v-4.5c0-0.3,0.3-0.6,0.6-0.6h7.2c0.3,0,0.6-0.3,0.6-0.6V58.3c0-0.3,0.3-0.6,0.6-0.6h44.3
		c0.3,0,0.6,0.3,0.6,0.6v14.8C253.1,73.4,253.4,73.7,253.7,73.7z M214.1,73.7h6c0.3,0,0.6-0.3,0.6-0.6v-9.7c0-0.3-0.3-0.6-0.6-0.6
		h-6c-0.3,0-0.6,0.3-0.6,0.6v9.7C213.6,73.4,213.8,73.7,214.1,73.7z M226.5,63.4v9.7c0,0.3,0.3,0.6,0.6,0.6h6.1
		c0.3,0,0.6-0.3,0.6-0.6v-9.7c0-0.3-0.3-0.6-0.6-0.6h-6.1C226.8,62.8,226.5,63.1,226.5,63.4z M239.6,63.4v9.7c0,0.3,0.3,0.6,0.6,0.6
		h6.2c0.3,0,0.6-0.3,0.6-0.6v-9.7c0-0.3-0.3-0.6-0.6-0.6h-6.2C239.8,62.8,239.6,63.1,239.6,63.4z"/>
	<path class="st3" d="M290.8,53.4c-1.9,0.6-3.9,1.2-5.8,1.7c-0.3,0.1-0.4,0.3-0.4,0.6v17.5c-0.1,7.7-4.8,6.7-11.9,7
		c-0.3,0-0.5-0.2-0.6-0.5c-0.3-1.3-0.9-3.1-1.4-4.5c-0.2-0.4,0.1-0.8,0.5-0.8c3.5-0.1,6.9,1.2,7.2-1.2c0,0,0-12.2,0-15.4
		c0-0.4-0.4-0.7-0.7-0.6L271,59c-0.3,0.1-0.6-0.1-0.7-0.4l-1.4-5c-0.1-0.3,0.1-0.6,0.4-0.7c2.5-0.6,5.4-1.3,8.7-2.2
		c0.3-0.1,0.4-0.3,0.4-0.6V37.7c0-0.3-0.3-0.6-0.6-0.6h-7.6c-0.3,0-0.6-0.3-0.6-0.6v-4.7c0-0.3,0.3-0.6,0.6-0.6h7.6
		c0.3,0,0.6-0.3,0.6-0.6V18.4c0-0.3,0.3-0.6,0.6-0.6h5c0.3,0,0.6,0.3,0.6,0.6v12.2c0,0.3,0.3,0.6,0.6,0.6h6.8c0.3,0,0.6,0.3,0.6,0.6
		v4.7c0,0.3-0.3,0.6-0.6,0.6h-6.8c-0.3,0-0.6,0.3-0.6,0.6v10.6c0,0.4,0.4,0.7,0.7,0.6l4.5-1.2c0.3-0.1,0.7,0.1,0.7,0.5l0.7,4.7
		C291.3,53.1,291.1,53.3,290.8,53.4z M327.5,49.5c-2.5,7.8-6.7,13.9-11.9,18.7c-0.3,0.3-0.2,0.7,0.1,0.9c4.5,2.5,9.7,4.4,15.4,5.6
		c0.4,0.1,0.6,0.6,0.3,0.9c-1.1,1.4-2.4,3.3-3.2,4.8c-0.1,0.2-0.4,0.3-0.7,0.3c-6.8-1.7-12.7-4.3-17.7-7.7c-0.2-0.1-0.4-0.1-0.6,0
		c-5.5,3.5-11.8,6-18.5,7.7c-0.3,0.1-0.6-0.1-0.7-0.4c-0.5-1.5-1.5-3.3-2.4-4.6c-0.2-0.3-0.1-0.8,0.4-0.9c5.7-1.2,11.1-3.1,15.8-5.7
		c0.3-0.2,0.4-0.7,0.1-0.9c-4-3.9-7.1-8.4-9.7-13.5c-0.2-0.3,0-0.7,0.3-0.8l1.1-0.4h-2.9c-0.3,0-0.6-0.3-0.6-0.6v-4.8
		c0-0.3,0.3-0.6,0.6-0.6h29.6c0,0,0.1,0,0.1,0l0.9-0.2c0.1,0,0.2,0,0.3,0l3.5,1.4C327.5,48.9,327.6,49.3,327.5,49.5z M304.5,27.7
		c0,6.3-1.9,13.6-10.2,18.2c-0.3,0.1-0.6,0.1-0.8-0.2c-0.8-1.1-2.2-2.7-3.2-3.7c-0.3-0.3-0.2-0.7,0.1-0.9c9.9-5.5,7.9-12.4,8.1-20.5
		c0-0.3,0.3-0.6,0.6-0.6h21.5c0.3,0,0.6,0.2,0.6,0.5c0.2,3.3-1.2,18.1,1.2,17.5c2,0,5.4,0.2,7.5-0.3c0.3-0.1,0.6,0.2,0.7,0.5
		c0.1,1.3,0.2,2.9,0.4,4.1c0,0.3-0.2,0.6-0.5,0.6c-16.9,2-15.5-1.5-15.3-16.6c0-0.3-0.3-0.6-0.6-0.6h-9.4c-0.3,0-0.6,0.3-0.6,0.6
		V27.7z M300.6,54.4c2.2,4,5.2,7.5,8.8,10.4c0.2,0.2,0.5,0.2,0.8,0c3.4-2.9,6.4-6.4,8.6-10.4c0.2-0.4-0.1-0.9-0.5-0.9h-17.1
		C300.7,53.5,300.4,54,300.6,54.4z"/>
	<path class="st3" d="M374.3,75.3c2.8-1.9,5.5-4.4,7.1-6.5c0.2-0.2,0.5-0.3,0.7-0.2l4.2,2.4c0.3,0.2,0.4,0.6,0.2,0.9
		c-2.8,3.2-6.9,6.6-10.4,8.7c-0.2,0.1-0.5,0.1-0.7-0.1c-1-1.1-2.6-2.6-3.8-3.5l0.8-0.4h-16.2c-0.3,0-0.6,0.3-0.6,0.6v2.3
		c0,0.3-0.3,0.6-0.6,0.6h-3.7c-0.3,0-0.6-0.3-0.6-0.6V61.1l-1.1,1.4c-0.2,0.3-0.7,0.3-0.9,0c-0.2-0.3-0.4-0.6-0.7-1
		c-0.6,6.3-1.6,12.8-3.4,18c-0.1,0.4-0.6,0.5-0.9,0.3c-1-0.7-2.6-1.5-3.8-2c-0.3-0.1-0.4-0.4-0.3-0.7c5.5-16.2,3.3-37,3.7-53.7
		c0-0.3,0.2-0.5,0.5-0.6c8.2-0.7,17.7-2.1,23.2-3.8c0.2-0.1,0.4,0,0.6,0.1l3.7,3.3c0.3,0.3,0.2,0.9-0.2,1
		c-6.2,1.7-14.3,2.9-21.8,3.6c-0.3,0-0.5,0.3-0.5,0.6v1.6c0,0.3,0.3,0.6,0.6,0.6h22.4c0.3,0,0.6,0.3,0.6,0.6v13.7
		c0,0.3-0.3,0.6-0.6,0.6h-22.4c-0.3,0-0.6,0.2-0.6,0.6c0,2.6-0.1,5.5-0.2,8.5c0,0.6,0.8,0.8,1.1,0.3c1.5-2.7,2.9-5.7,3.7-8.7
		c0.1-0.3,0.4-0.5,0.7-0.4l3.4,0.9c0.3,0.1,0.5,0.4,0.4,0.7c-0.4,1.1-0.8,2.2-1.2,3.3c-0.1,0.4,0.1,0.8,0.5,0.8h3.3
		c0.4,0,0.7-0.4,0.5-0.8c-0.4-1-0.8-2-1.3-3c-0.2-0.3,0-0.7,0.4-0.8l3.2-0.8c0.2-0.1,0.5,0,0.6,0.3c0.9,1.5,1.7,3.2,2.3,4.8
		c0.1,0.2,0.3,0.4,0.5,0.4h5.6c0.3,0,0.6,0.3,0.6,0.6v3c0,0.3-0.3,0.6-0.6,0.6h-6c-0.3,0-0.6,0.3-0.6,0.6v2c0,0.3,0.3,0.6,0.6,0.6
		h5.3c0.3,0,0.6,0.3,0.6,0.6v2.6c0,0.3-0.3,0.6-0.6,0.6h-5.3c-0.3,0-0.6,0.3-0.6,0.6v2c0,0.3,0.3,0.6,0.6,0.6h5.4
		c0.3,0,0.6,0.3,0.6,0.6v2.7c0,0.3-0.3,0.6-0.6,0.6h-5.4c-0.3,0-0.6,0.3-0.6,0.6v2.1c0,0.3,0.3,0.6,0.6,0.6h6.5
		c0.3,0,0.6,0.3,0.6,0.6v2.1C373.4,75.3,373.9,75.6,374.3,75.3z M348.6,35.5v3.9c0,0.3,0.3,0.6,0.6,0.6h16.7c0.3,0,0.6-0.3,0.6-0.6
		v-3.9c0-0.3-0.3-0.6-0.6-0.6h-16.7C348.9,34.9,348.6,35.1,348.6,35.5z M360.8,55h-4.7c-0.3,0-0.6,0.3-0.6,0.6v2
		c0,0.3,0.3,0.6,0.6,0.6h4.7c0.3,0,0.6-0.3,0.6-0.6v-2C361.4,55.3,361.2,55,360.8,55z M360.8,61.9h-4.7c-0.3,0-0.6,0.3-0.6,0.6v2
		c0,0.3,0.3,0.6,0.6,0.6h4.7c0.3,0,0.6-0.3,0.6-0.6v-2C361.4,62.2,361.2,61.9,360.8,61.9z M356.1,72.2h4.7c0.3,0,0.6-0.3,0.6-0.6
		v-2.1c0-0.3-0.3-0.6-0.6-0.6h-4.7c-0.3,0-0.6,0.3-0.6,0.6v2.1C355.5,71.9,355.8,72.2,356.1,72.2z M384.2,31.2
		c0.2-1.4,0.4-2.9,0.6-4.3c0-0.3-0.2-0.6-0.6-0.6h-9.4c-0.3,0-0.6-0.3-0.6-0.6v-4.3c0-0.3,0.3-0.6,0.6-0.6h26.9
		c0.3,0,0.6,0.3,0.6,0.6v4.3c0,0.3-0.3,0.6-0.6,0.6h-10c-0.3,0-0.5,0.2-0.6,0.4c-0.4,1.5-0.8,2.9-1.1,4.3c-0.1,0.4,0.2,0.7,0.6,0.7
		h9c0.3,0,0.6,0.3,0.6,0.6v34.1c0,0.3-0.3,0.6-0.6,0.6h-23.1c-0.3,0-0.6-0.3-0.6-0.6V32.2c0-0.3,0.3-0.6,0.6-0.6h7.1
		C383.9,31.7,384.1,31.5,384.2,31.2z M394.1,36.6h-12.3c-0.3,0-0.6,0.3-0.6,0.6v4.1c0,0.3,0.3,0.6,0.6,0.6h12.3
		c0.3,0,0.6-0.3,0.6-0.6v-4.1C394.6,36.9,394.4,36.6,394.1,36.6z M394.1,46.6h-12.3c-0.3,0-0.6,0.3-0.6,0.6v4.3
		c0,0.3,0.3,0.6,0.6,0.6h12.3c0.3,0,0.6-0.3,0.6-0.6v-4.3C394.6,46.8,394.4,46.6,394.1,46.6z M394.1,56.6h-12.3
		c-0.3,0-0.6,0.3-0.6,0.6v4.3c0,0.3,0.3,0.6,0.6,0.6h12.3c0.3,0,0.6-0.3,0.6-0.6v-4.3C394.6,56.8,394.4,56.6,394.1,56.6z M395,68.7
		c2.8,2.3,6,5.5,7.9,7.8c0.2,0.3,0.1,0.6-0.1,0.8l-3.8,2.6c-0.3,0.2-0.6,0.1-0.8-0.1c-1.7-2.3-4.8-5.6-7.5-8
		c-0.3-0.3-0.2-0.7,0.1-0.9l3.6-2.3C394.5,68.5,394.8,68.6,395,68.7z"/>
</g>
</svg>
